HIERARCHY
ROOT Hips
{
	OFFSET 182.371002 92.491722 19.190800
	CHANNELS 6 Xposition Yposition Zposition Zrotation Yrotation Xrotation 
	JOINT LeftUpLeg
	{
		OFFSET 0.103461 1.857828 10.548504
		CHANNELS 3 Zrotation Yrotation Xrotation
		JOINT LeftLeg
		{
			OFFSET 43.500008 -0.000031 0.000006
			CHANNELS 3 Zrotation Yrotation Xrotation
			JOINT LeftFoot
			{
				OFFSET 42.372200 0.000019 -0.000010
				CHANNELS 3 Zrotation Yrotation Xrotation
				JOINT LeftToe
				{
					OFFSET 17.299999 -0.000000 0.000002
					CHANNELS 3 Zrotation Yrotation Xrotation
					End Site
					{
						OFFSET 0.000000 0.000000 0.000000
					}
				}
			}
		}
	}
	JOINT RightUpLeg
	{
		OFFSET 0.103457 1.857829 -10.548504
		CHANNELS 3 Zrotation Yrotation Xrotation
		JOINT RightLeg
		{
			OFFSET 43.500046 -0.000019 0.000011
			CHANNELS 3 Zrotation Yrotation Xrotation
			JOINT RightFoot
			{
				OFFSET 42.372261 0.000000 0.000008
				CHANNELS 3 Zrotation Yrotation Xrotation
				JOINT RightToe
				{
					OFFSET 17.299990 -0.000006 0.000008
					CHANNELS 3 Zrotation Yrotation Xrotation
					End Site
					{
						OFFSET 0.000000 0.000000 0.000000
					}
				}
			}
		}
	}
	JOINT Spine
	{
		OFFSET 6.901969 -2.603727 -0.000006
		CHANNELS 3 Zrotation Yrotation Xrotation
		JOINT Spine1
		{
			OFFSET 12.588100 -0.000002 0.000002
			CHANNELS 3 Zrotation Yrotation Xrotation
			JOINT Spine2
			{
				OFFSET 12.343195 0.000004 0.000008
				CHANNELS 3 Zrotation Yrotation Xrotation
				JOINT Neck
				{
					OFFSET 25.832905 -0.000008 -0.000002
					CHANNELS 3 Zrotation Yrotation Xrotation
					JOINT Head
					{
						OFFSET 11.766608 0.000010 -0.000008
						CHANNELS 3 Zrotation Yrotation Xrotation
						End Site
						{
							OFFSET 0.000000 0.000000 0.000000
						}
					}
				}
				JOINT LeftShoulder
				{
					OFFSET 19.745903 -1.480370 6.000106
					CHANNELS 3 Zrotation Yrotation Xrotation
					JOINT LeftArm
					{
						OFFSET 11.284119 -0.000006 -0.000014
						CHANNELS 3 Zrotation Yrotation Xrotation
						JOINT LeftForeArm
						{
							OFFSET 33.000050 0.000004 0.000026
							CHANNELS 3 Zrotation Yrotation Xrotation
							JOINT LeftHand
							{
								OFFSET 25.200020 0.000017 0.000004
								CHANNELS 3 Zrotation Yrotation Xrotation
								End Site
								{
									OFFSET 0.000000 0.000000 0.000000
								}
							}
						}
					}
				}
				JOINT RightShoulder
				{
					OFFSET 19.746099 -1.480375 -6.000082
					CHANNELS 3 Zrotation Yrotation Xrotation
					JOINT RightArm
					{
						OFFSET 11.284140 -0.000015 -0.000008
						CHANNELS 3 Zrotation Yrotation Xrotation
						JOINT RightForeArm
						{
							OFFSET 33.000084 0.000016 0.000002
							CHANNELS 3 Zrotation Yrotation Xrotation
							JOINT RightHand
							{
								OFFSET 25.199783 0.000142 0.000437
								CHANNELS 3 Zrotation Yrotation Xrotation
								End Site
								{
									OFFSET 0.000000 0.000000 0.000000
								}
							}
						}
					}
				}
			}
		}
	}
}
MOTION
Frames: 14
Frame Time: 0.033333
182.371002 92.491722 19.190800 91.028404 4.617300 88.122008 -173.925836 -0.211396 -179.321754 -8.573522 -3.135627 -2.791777 81.993996 2.107530 0.406959 21.454553 0.003086 -0.000001 -176.035968 0.326097 178.002257 -14.415724 1.495975 2.313968 84.146237 -1.783958 -0.654846 21.454557 -0.003115 -0.000017 6.502539 -0.269085 0.102756 2.969459 -0.541102 0.228025 2.651345 -0.539582 0.231296 20.093235 2.851266 -0.449977 -19.683856 -2.188337 0.332013 -85.065047 -82.401076 -97.384011 -8.847029 4.799487 -11.662950 -9.542130 -14.753468 0.968110 13.377902 -4.292590 -10.249623 -170.195965 84.719658 11.477560 1.314275 -6.752527 15.670300 -14.469638 18.399922 -1.261888 17.543310 9.720298 -5.651329 
182.373795 92.491150 19.200319 91.028410 4.624827 88.137075 -173.912558 -0.211398 -179.314008 -8.573518 -3.138400 -2.791785 81.995793 2.107525 0.406965 21.454551 0.003096 0.000000 -176.024780 0.318496 178.013472 -14.423973 1.482397 2.319077 84.149085 -1.785284 -0.645581 21.454558 -0.003100 -0.000015 6.502539 -0.266417 0.102761 2.969464 -0.535684 0.223298 2.651350 -0.534201 0.226542 20.084176 2.856324 -0.449977 -19.652833 -2.188335 0.332072 -85.037433 -82.398159 -97.411987 -8.855041 4.805652 -11.677799 -9.535811 -14.748062 0.968116 13.390489 -4.283697 -10.243470 -170.113252 84.720027 11.560934 1.303828 -6.775047 15.670305 -14.469640 18.388370 -1.261911 17.562494 9.720294 -5.636866 
182.383301 92.489243 19.226290 91.023588 4.643405 88.168685 -173.875716 -0.211397 -179.276073 -8.573511 -3.146058 -2.796116 82.003483 2.110669 0.406955 21.454551 0.003094 0.000000 -175.993047 0.298990 178.002707 -14.437457 1.455361 2.353494 84.156721 -1.803180 -0.620087 21.454557 -0.003120 -0.000018 6.502534 -0.258796 0.102759 2.969466 -0.520287 0.211695 2.651353 -0.518879 0.214842 20.051866 2.839278 -0.449973 -19.574774 -2.188341 0.322748 -85.032727 -82.362307 -97.420033 -8.895746 4.811637 -11.715216 -9.511067 -14.736869 0.968118 13.370472 -4.257225 -10.158043 -169.918837 84.732438 11.757001 1.277801 -6.843768 15.669475 -14.469640 18.366341 -1.261897 17.622547 9.716330 -5.536799 
182.395599 92.486862 19.254829 91.016102 4.663913 88.184675 -173.840650 -0.211392 -179.195436 -8.573529 -3.154611 -2.834759 82.021563 2.137118 0.406958 21.454551 0.003097 0.000000 -175.955850 0.290104 177.982763 -14.442455 1.446980 2.379607 84.162124 -1.818104 -0.606382 21.454560 -0.003102 -0.000016 6.502532 -0.251076 0.102753 2.969453 -0.504791 0.205127 2.651353 -0.503403 0.208169 20.017039 2.820853 -0.449972 -19.519088 -2.197409 0.322006 -85.131225 -82.303178 -97.326712 -8.949318 4.792795 -11.745007 -9.462778 -14.731378 0.968112 13.331400 -4.209756 -10.000557 -169.831670 84.732397 11.844906 1.263600 -6.899143 15.658356 -14.482752 18.363549 -1.261910 17.684622 9.677459 -5.516212 
182.410400 92.484337 19.287399 91.008200 4.685646 88.187557 -173.799669 -0.205004 -179.120564 -8.570639 -3.156287 -2.877525 82.039014 2.167515 0.411371 21.454551 0.003094 0.000002 -175.914801 0.289001 177.931182 -14.442488 1.453429 2.414067 84.166372 -1.840596 -0.599963 21.454557 -0.003104 -0.000016 6.502541 -0.245654 0.102760 2.969462 -0.493925 0.205576 2.651351 -0.492549 0.208564 19.986933 2.833215 -0.449979 -19.498769 -2.221575 0.328207 -85.280895 -82.219085 -97.184392 -9.021891 4.741627 -11.759759 -9.406698 -14.727278 0.968116 13.289168 -4.136330 -9.924893 -169.741785 84.734295 11.935581 1.266557 -6.961901 15.691919 -14.508343 18.356979 -1.261918 17.715550 9.577399 -5.604064 
182.424194 92.481133 19.324080 90.997722 4.713598 88.186997 -173.741790 -0.201795 -179.078175 -8.555753 -3.154967 -2.904119 82.054416 2.186922 0.416728 21.454551 0.003091 -0.000000 -175.864517 0.284893 177.883903 -14.442163 1.461168 2.442503 84.171625 -1.859329 -0.595708 21.454558 -0.003106 -0.000017 6.502529 -0.241045 0.102758 2.969464 -0.484730 0.208794 2.651349 -0.483348 0.211739 19.970922 2.859248 -0.448458 -19.536779 -2.255536 0.343837 -85.459245 -82.127048 -97.014047 -9.086920 4.674086 -11.799866 -9.361303 -14.720992 0.968105 13.252541 -4.076355 -9.930235 -169.746771 84.737123 11.930588 1.301745 -6.993154 15.685910 -14.480365 18.323661 -1.261896 17.705338 9.391184 -5.528098 
182.435699 92.477463 19.362280 90.986992 4.744343 88.185269 -173.678487 -0.196577 -179.058832 -8.539559 -3.152429 -2.917574 82.070167 2.197224 0.422015 21.454553 0.003076 -0.000002 -175.812334 0.276994 177.854929 -14.445770 1.457911 2.459938 84.179575 -1.870076 -0.590423 21.454557 -0.003114 -0.000018 6.502546 -0.239054 0.102758 2.974360 -0.478344 0.213284 2.656265 -0.476916 0.216182 19.966593 2.898127 -0.435024 -19.634813 -2.291130 0.373643 -85.478882 -82.037600 -97.002763 -9.131063 4.637760 -11.852021 -9.329911 -14.721141 0.968109 13.225109 -4.077112 -9.952885 -169.973123 84.739138 11.702298 1.386690 -7.005601 15.661986 -14.439541 18.296480 -1.261901 17.659461 9.176255 -5.363850 
182.445602 92.473717 19.399611 90.981029 4.774975 88.185870 -173.615417 -0.191485 -179.062165 -8.523205 -3.150436 -2.917112 82.084032 2.196354 0.426788 21.454555 0.003094 0.000001 -175.765739 0.272209 177.836720 -14.460327 1.451967 2.471671 84.192682 -1.876517 -0.583751 21.454557 -0.003108 -0.000017 6.502539 -0.237938 0.102747 2.984085 -0.476362 0.217754 2.665980 -0.474914 0.220643 19.952067 2.935862 -0.417492 -19.761120 -2.312689 0.403354 -85.327976 -81.984721 -97.159311 -9.109909 4.634444 -11.885405 -9.322779 -14.719319 0.968116 13.208070 -4.124572 -9.965746 -169.933385 84.738954 11.742410 1.456527 -7.016781 15.661868 -14.400002 18.306801 -1.261909 17.601461 8.979273 -5.256410 
182.453400 92.470596 19.432791 90.980121 4.794178 88.192188 -173.569928 -0.188904 -179.082533 -8.514304 -3.148396 -2.904580 82.096996 2.191008 0.431988 21.454555 0.003085 0.000001 -175.738869 0.271196 177.823989 -14.488103 1.447545 2.482109 84.209696 -1.881731 -0.575530 21.454562 -0.003111 -0.000018 6.502534 -0.237711 0.102756 2.991799 -0.476494 0.219612 2.673682 -0.475041 0.222494 19.935849 2.973319 -0.410849 -19.875418 -2.351049 0.427881 -85.175287 -81.978061 -97.313332 -9.028332 4.622958 -11.905433 -9.315052 -14.707711 0.968108 13.198261 -4.143188 -9.939426 -169.554474 84.733517 12.124492 1.493569 -7.031261 15.677530 -14.386199 18.379404 -1.261896 17.610832 8.833172 -5.348634 
182.454803 92.469147 19.459490 90.979178 4.793164 88.211613 -173.557812 -0.192907 -179.075635 -8.520482 -3.148019 -2.900005 82.110861 2.187562 0.436348 21.454551 0.003092 0.000000 -175.730618 0.259090 177.856432 -14.508766 1.427875 2.475205 84.219115 -1.874471 -0.565787 21.454560 -0.003106 -0.000017 6.499802 -0.238408 0.102756 2.986355 -0.478176 0.213670 2.668241 -0.476737 0.216563 19.968929 2.980030 -0.415082 -19.983535 -2.370840 0.432572 -85.212129 -81.966908 -97.277350 -8.973830 4.590332 -11.818637 -9.284242 -14.703732 0.968110 13.194238 -4.094481 -9.850387 -169.317958 84.727117 12.362961 1.535017 -7.017564 15.657411 -14.370491 18.444480 -1.261910 17.602540 8.723258 -5.583181 
182.452194 92.469200 19.483530 90.977874 4.782864 88.240184 -173.560817 -0.200616 -179.045363 -8.532189 -3.153606 -2.902776 82.122937 2.190017 0.439081 21.454555 0.003091 -0.000000 -175.725099 0.244088 177.933941 -14.516122 1.396705 2.448755 84.222113 -1.853755 -0.556850 21.454557 -0.003106 -0.000017 6.493196 -0.240074 0.102761 2.973125 -0.482764 0.202137 2.655041 -0.481380 0.205043 20.003594 2.988608 -0.429879 -20.019553 -2.382905 0.421155 -85.297725 -81.928392 -97.195013 -8.981090 4.553587 -11.703068 -9.220920 -14.678362 0.968111 13.162000 -4.163454 -9.835876 -169.172694 84.709536 12.509430 1.571696 -6.985611 15.629973 -14.378631 18.496519 -1.261906 17.699499 8.657694 -5.599007 
182.449005 92.469910 19.510321 90.976556 4.775629 88.256310 -173.555681 -0.205707 -179.016048 -8.538268 -3.161530 -2.911547 82.134589 2.197330 0.444161 21.454553 0.003077 -0.000002 -175.709649 0.234900 178.012365 -14.510436 1.368894 2.414574 84.222591 -1.828575 -0.551521 21.454560 -0.003100 -0.000017 6.485018 -0.244591 0.102747 2.956804 -0.491682 0.196235 2.638692 -0.490359 0.199196 20.035412 2.974389 -0.459508 -19.979748 -2.352583 0.375916 -85.441186 -81.871674 -97.056216 -9.037556 4.554957 -11.741156 -9.198325 -14.707129 0.968114 13.121330 -4.236071 -9.755257 -169.054326 84.681942 12.628736 1.592929 -6.972204 15.524882 -14.406302 18.542978 -1.265018 17.776221 8.768899 -5.531658 
182.444397 92.471222 19.537081 90.975497 4.767725 88.260032 -173.551036 -0.208496 -178.992224 -8.547370 -3.168720 -2.923182 82.142191 2.206152 0.448472 21.454557 0.003100 0.000002 -175.693079 0.233003 178.090298 -14.498005 1.349811 2.372578 84.220877 -1.799597 -0.553195 21.454558 -0.003101 -0.000018 6.474351 -0.250181 0.102751 2.935415 -0.502852 0.194397 2.617331 -0.501528 0.197432 20.062718 2.945434 -0.488032 -19.870257 -2.297514 0.320988 -85.642656 -81.816644 -96.859097 -9.104889 4.598470 -11.911852 -9.239829 -14.774201 0.968110 13.081100 -4.278825 -9.720350 -168.972555 84.660980 12.711249 1.586956 -7.020468 15.345130 -14.457260 18.637691 -1.271310 17.788119 8.848458 -5.279782 
182.436203 92.473793 19.560789 90.975053 4.756365 88.245545 -173.556008 -0.215502 -178.985695 -8.563426 -3.177994 -2.935553 82.150148 2.215524 0.448996 21.454550 0.003073 -0.000002 -175.677943 0.230400 178.120255 -14.471800 1.350222 2.346680 84.209300 -1.783757 -0.562521 21.454557 -0.003100 -0.000017 6.461477 -0.256125 0.102747 2.909680 -0.514740 0.199160 2.591584 -0.513403 0.202273 20.084327 2.920450 -0.518903 -19.756312 -2.292427 0.283305 -85.811833 -81.769536 -96.693533 -9.168928 4.677956 -12.097833 -9.316123 -14.805261 0.968105 13.064748 -4.377780 -9.815558 -169.015572 84.610020 12.667762 1.550855 -7.103558 15.333746 -14.564161 18.723422 -1.277501 17.675181 8.879573 -5.160096 
